<svg width="100" height="100" viewBox="0 0 100 100" fill="none" xmlns="http://www.w3.org/2000/svg">
<path d="M47.9727 25.2597C48.4772 23.1198 51.5231 23.1198 52.0277 25.2597L55.4768 39.876C56.0206 42.1806 57.8197 43.9797 60.1243 44.5235L74.7406 47.9727C76.8806 48.4772 76.8806 51.5231 74.7406 52.0277L60.1243 55.4768C57.8197 56.0206 56.0206 57.8197 55.4768 60.1243L52.0277 74.7406C51.5231 76.8806 48.4772 76.8806 47.9727 74.7406L44.5235 60.1243C43.9797 57.8197 42.1806 56.0206 39.876 55.4768L25.2597 52.0277C23.1198 51.5231 23.1198 48.4772 25.2597 47.9727L39.876 44.5235C42.1806 43.9797 43.9797 42.1806 44.5235 39.876L47.9727 25.2597Z" fill="#995DCB"/>
</svg>
